inDegrees=no
num_controls=7
num_derivatives=13
num_iterations=106
num_multipliers=7
num_parameters=0
num_slacks=7
num_states=26
objective=0.446691
objective_accelerations=0.055621
objective_balance=0.003294
objective_effort=0.021935
objective_height=0.360280
objective_ligament=0.005560
solver_duration=1416.372560
status=Solve_Succeeded
success=true
DataType=double
version=3
OpenSimVersion=4.5
endheader
time	/jointset/ground_pelvis/pelvis_tilt/value	/jointset/ground_pelvis/pelvis_tx/value	/jointset/ground_pelvis/pelvis_ty/value	/jointset/hip_l/hip_flexion_l/value	/jointset/hip_l/hip_adduction_l/value	/jointset/hip_l/hip_rotation_l/value	/jointset/back/lumbar_extension/value	/jointset/patellofemoral_l/patellar_flexion_l/value	/jointset/knee_l/knee_flexion_l/value	/jointset/knee_l/knee_adduction_l/value	/jointset/knee_l/knee_rotation_l/value	/jointset/ankle_l/ankle_angle_l/value	/jointset/subtalar_l/subtalar_angle_l/value	/jointset/ground_pelvis/pelvis_tilt/speed	/jointset/ground_pelvis/pelvis_tx/speed	/jointset/ground_pelvis/pelvis_ty/speed	/jointset/hip_l/hip_flexion_l/speed	/jointset/hip_l/hip_adduction_l/speed	/jointset/hip_l/hip_rotation_l/speed	/jointset/back/lumbar_extension/speed	/jointset/patellofemoral_l/patellar_flexion_l/speed	/jointset/knee_l/knee_flexion_l/speed	/jointset/knee_l/knee_adduction_l/speed	/jointset/knee_l/knee_rotation_l/speed	/jointset/ankle_l/ankle_angle_l/speed	/jointset/subtalar_l/subtalar_angle_l/speed	/forceset/tau_hip_flexion_l	/forceset/tau_hip_adduction_l	/forceset/tau_hip_rotation_l	/forceset/tau_knee_flexion_l	/forceset/tau_ankle_angle_l	/forceset/tau_subtalar_angle_l	/forceset/tau_lumbar_extension	lambda_cid13_p0	lambda_cid13_p1	lambda_cid13_p2	lambda_cid13_p3	lambda_cid13_p4	lambda_cid13_p5	lambda_cid14_p0	/jointset/ground_pelvis/pelvis_tilt/accel	/jointset/ground_pelvis/pelvis_tx/accel	/jointset/ground_pelvis/pelvis_ty/accel	/jointset/hip_l/hip_flexion_l/accel	/jointset/hip_l/hip_adduction_l/accel	/jointset/hip_l/hip_rotation_l/accel	/jointset/back/lumbar_extension/accel	/jointset/patellofemoral_l/patellar_flexion_l/accel	/jointset/knee_l/knee_flexion_l/accel	/jointset/knee_l/knee_adduction_l/accel	/jointset/knee_l/knee_rotation_l/accel	/jointset/ankle_l/ankle_angle_l/accel	/jointset/subtalar_l/subtalar_angle_l/accel	gamma_cid13_p0	gamma_cid13_p1	gamma_cid13_p2	gamma_cid13_p3	gamma_cid13_p4	gamma_cid13_p5	gamma_cid14_p0
0.5	-0.3226715909182179	-0.03052691531308397	0.7658294479831974	1.061535737366323	-0.4370404012467526	-0.2259787612133207	-0.2535852220972072	0.796595285542689	0.7965952855425807	-0.1313672824373786	-0.1580176728557402	0.1160825114276221	-0.02826855231452228	-0.7273589000183774	-0.1979026276532025	-0.5082400037805495	2.373830708456536	-0.2099002050805933	0.7378217658322983	-0.1187289807619212	1.961873066997937	1.961873066997804	0.1195123662239179	-0.08805200196981433	0.4832697320680707	0.00823691700785488	-0.1610378752483713	0.02309477380066132	-0.01109879882283631	-0.2196236930980922	0.06199424191949095	0.04094158345469542	0.1617953178068312	-12.89280814740692	-18.7208404885288	6.300837276113962	-5.527839028711456	-522.6239095449911	-61.89004192889455	-25.63273733073705	0.7172218049254483	0.5504860255102143	-0.4543228100406996	-1.234441543771224	0.7189229476552104	-0.1973172136838289	1.022956308458998	-1.205572372181994	-1.205572372182079	0.09178749195496901	0.158222250682845	-0.4828488427050626	0.53663401830666	-5.381068684579943e-07	-4.854935136579882e-07	2.623148642403958e-06	1.238596244511971e-07	-6.141544749910024e-07	-1.12847095608642e-07	-4.352505440825011e-07
0.51	-0.3299075776362219	-0.03247814182778935	0.7607254696281284	1.085207560815731	-0.4391045160520324	-0.2186094239229274	-0.254722367662618	0.816150528120599	0.8161505281205881	-0.1301716442065386	-0.1588898144637759	0.1208898345101881	-0.02816119172690161	-0.7197335566950352	-0.1923220131963089	-0.5124444281363678	2.360192923048172	-0.2029098020786816	0.7359550525522531	-0.1087295438490704	1.948899925646249	1.948899925646155	0.1195925613669792	-0.0863607975917719	0.4781173509277912	0.01321853081942762	-0.1662430846984875	0.02414107640458048	-0.01120871938341103	-0.2224147040027832	0.06148698285683803	0.04110524696460623	0.1658059752995884	-13.24877535021142	-18.70531161977197	6.270626434104403	-5.473434231362305	-526.1099403557955	-61.35769443064887	-24.73371106938897	0.8008640583122698	0.5649730100197471	-0.3869312817504545	-1.479676214178314	0.690765617048527	-0.1953031967987118	0.9840256534032353	-1.384431303940973	-1.384431303935048	-0.03724291054272336	0.1773983221890063	-0.5430636044292396	0.4762020368105664	-4.981507445493563e-07	-4.003199074797819e-07	2.50288102298093e-06	1.275652583799554e-07	-5.62911593223201e-07	-3.994059819045378e-08	-4.086869544900909e-07
0.52	-0.3370641762285383	-0.03437293742707766	0.7555827612228215	1.108732760576091	-0.4410983934991753	-0.2112615447276603	-0.2557604012047597	0.8355677900275338	0.8355677900276268	-0.1289758797114681	-0.1597444782698726	0.1256433076104035	-0.02800455960631958	-0.7114812748807454	-0.1866164445697891	-0.5159860138281057	2.344505970647438	-0.1958527334531949	0.7335301468068546	-0.09890657610801304	1.934276932803412	1.934276932803358	0.1195376190690636	-0.08455644158076547	0.4724997355979176	0.01809122360012046	-0.1714482941486249	0.02518737900850159	-0.01131863994393741	-0.2252057149074773	0.06097972379418806	0.04126891047452035	0.1698166327923228	-13.60759863051882	-18.68935144306204	6.240426922206463	-5.452823229621991	-529.6691135017064	-60.87933887079332	-23.83566990906412	0.8426095031149647	0.5754768594354361	-0.3217550772246033	-1.644274942244997	0.7322560723702284	-0.3089557067545088	0.98766247410029	-1.535542670411653	-1.535542670411652	0.06476000375957727	0.1808525772756411	-0.5758956806239121	0.5148498121306685	-4.855998006192159e-07	-3.447755424046407e-07	2.512862718993048e-06	1.373894333669441e-07	-5.395192764052159e-07	2.350862329886015e-08	-4.044850731172982e-07
0.53	-0.3441352665612984	-0.03621015165819472	0.7504079505726362	1.132091264430129	-0.4430213454843656	-0.2039406133785024	-0.2567011250400085	0.8548308881156298	0.8548308881157395	-0.1277811638403117	-0.1605805531918079	0.1303383935363377	-0.02779966552176728	-0.7026371576714024	-0.1808150178441723	-0.5188635024078364	2.326875230043892	-0.1887265330827202	0.7305536324978041	-0.08928162015625407	1.918088737026067	1.918088737026055	0.1194038010790655	-0.0826513170399714	0.4664468134189866	0.02287289088584685	-0.1766141619548129	0.02583418369913894	-0.01136604362343067	-0.2278568348133596	0.0600721228360233	0.04157051627602944	0.1737419353466471	-14.08986023705627	-18.71299948947407	6.218040288820602	-5.271669017010847	-533.1564043015411	-60.57820162826066	-22.9398889360157	0.9201980257888664	0.5842116604123495	-0.2539591246682035	-1.870479295267447	0.7041776336285112	-0.3077183609057879	0.9433977735680968	-1.698469744221318	-1.698469744214978	-0.0526795618158958	0.1969317743964491	-0.6305797081138808	0.4573765335629514	-4.715639183923605e-07	-2.692197184242022e-07	2.529409252455879e-06	1.553120879885651e-07	-5.207905873693074e-07	8.900386057207635e-08	-3.970559688483328e-07
0.54	-0.3511149386827768	-0.03798900440579814	0.7452077223613892	1.155263859742958	-0.4448727603430025	-0.1966525909860188	-0.257546902192169	0.8739245019033867	0.8739245019035163	-0.1265878315213417	-0.1613972589919531	0.1349708323961657	-0.02754744449500382	-0.6931976326242631	-0.1749441478670602	-0.5210695260403982	2.307324262406024	-0.1815453081425497	0.7269483554717358	-0.07991723949031704	1.900380072735705	1.900380072735736	0.1192609086316123	-0.08068261722256991	0.459970322376608	0.02755661204234708	-0.1817800297610128	0.02648098838978057	-0.01141344730292402	-0.2305079547192408	0.05916452187786195	0.04187212207754547	0.1776672379009568	-14.57597155476241	-18.73667909312148	6.196466258954971	-5.120028141212646	-536.728436563247	-60.33430191167597	-22.0480964879887	0.9616910706742431	0.58936550973449	-0.1874620877907951	-2.028320349109593	0.7432609863093956	-0.4347082501580988	0.9355474169359069	-1.839636373015033	-1.839636373015045	0.06294511226855522	0.1935676325971261	-0.6606094533134301	0.4952605862854248	-4.558851257095652e-07	-1.715235569315196e-07	2.553219010332262e-06	1.821947626314815e-07	-5.072216567305898e-07	1.567627748828015e-07	-3.860563200984956e-07
0.55	-0.3579974164936508	-0.03970887567768444	0.7399888158972214	1.178231620744313	-0.4466520724453814	-0.1894034254300133	-0.2583003893576309	0.8928335225358951	0.8928335225359958	-0.1253960941567649	-0.1621937457557993	0.1395364393539363	-0.02724884346283204	-0.683204225335294	-0.1690249826946946	-0.5225961128523972	2.285916048966018	-0.1743133552967174	0.7227828586752963	-0.07083976579812029	1.881177935153806	1.881177935153799	0.1190788241940555	-0.07860936973688147	0.4530839824157766	0.03214198384843797	-0.1867869719325244	0.02704226778797798	-0.01140971658342034	-0.2332589230240187	0.05837988797922047	0.04194599761750327	0.1814297921943834	-15.02705378922739	-18.65923543114846	6.149227262730628	-4.896292917161224	-540.2564800631646	-59.93134931771654	-21.16422139642652	1.032161174000891	0.5939999648721889	-0.1180088508880716	-2.243925463273132	0.7134021770554178	-0.4230784219909631	0.884911515984482	-1.997344231270342	-1.997344231275818	-0.05988753182609728	0.2155225539409634	-0.7126917888230953	0.4366529502484989	-4.346485266906809e-07	-7.037927084577875e-08	2.557675469286416e-06	2.064943452701158e-07	-4.866029393029365e-07	2.229526036579341e-07	-3.714928818386265e-07
0.5600000000000001	-0.3647771611084373	-0.04136939370907021	0.7347580931903371	1.200975928886902	-0.4483590170706346	-0.1821990364474918	-0.258964888952046	0.9115431534364851	0.9115431534365591	-0.1242063980985748	-0.1629692361953121	0.1440311738078277	-0.02690509321810381	-0.6726509934066183	-0.1630734997669506	-0.5234327745837365	2.262633690652928	-0.1670718127174755	0.7179930407746943	-0.0621197252810044	1.86050212635219	1.860502126352147	0.1188526473541677	-0.07648335235574151	0.445795821600741	0.03658645455363276	-0.1917939141040407	0.02760354718618055	-0.01140598586392122	-0.2360098913287952	0.05759525408058196	0.04201987315746894	0.1851923464878023	-15.48087451235974	-18.58155130230852	6.102224589302321	-4.706494321332301	-543.8545723578304	-59.58083602607971	-20.29202113593805	1.073655998615613	0.5958290608101731	-0.04947707165890646	-2.403149323726541	0.7451789329913121	-0.5595724709906196	0.8640607819197457	-2.134370616958257	-2.134370616958227	0.05412663180236146	0.2041216116874344	-0.7409736241542767	0.4670803661061916	-4.0674256006849e-07	3.490276475163191e-08	2.538907969533895e-06	2.276942175036118e-07	-4.575244777285603e-07	2.872595297903557e-07	-3.526528961667193e-07
0.5700000000000001	-0.3714488234240806	-0.04297031871370504	0.7295224265634916	1.223478535069344	-0.4499934261572057	-0.1750452982454318	-0.2595440595526894	0.9300389106066164	0.9300389106066353	-0.1230191593831229	-0.1637229466133752	0.1484511318377668	-0.02651746991937459	-0.6615964124771623	-0.1571133202892404	-0.523586057158509	2.237596387925181	-0.1598129264106555	0.7126610314766579	-0.05379900119807736	1.838422330638058	1.838422330638053	0.1185820670656692	-0.07425222249730019	0.4381355998370816	0.04091192542581377	-0.1964448972938954	0.02771927862618143	-0.0113461314253751	-0.2389733080594594	0.05699749894225899	0.04208263305242364	0.188625881017597	-15.8663115382638	-18.51083503160839	6.056127714151462	-4.488486543422063	-547.2569831064025	-59.31702715635179	-19.43345124416398	1.134059928001763	0.5958874590333687	0.01883197842003209	-2.597761848111669	0.7154619218606916	-0.5343379484592137	0.803387268953223	-2.27876220481961	-2.278762204813905	-0.06952298928478123	0.2340911528206805	-0.7875440918447414	0.4110272735978826	-3.796782420520583e-07	1.068983588405686e-07	2.486818678754443e-06	2.400985956484319e-07	-4.301816588086237e-07	3.413351054848639e-07	-3.346014064285089e-07
0.58	-0.3780073997728516	-0.0445116869100064	0.7242886442766597	1.245722020004346	-0.4515554026922415	-0.1679477446942009	-0.2600425611030078	0.948307074188369	0.9483070741883365	-0.1218350009965768	-0.1644540492368763	0.1527926881221949	-0.02608744254675876	-0.6500338000320585	-0.1511621381002576	-0.5230559065810172	2.210809441164919	-0.1525853024105024	0.7067561106086598	-0.04598591521618692	1.814983408676769	1.814983408676802	0.1182365815728181	-0.07196179344292972	0.4301154724985036	0.0450672693309485	-0.2010958804837511	0.02783501006618668	-0.01128627698681852	-0.2419367247901233	0.05639974380393807	0.04214539294738456	0.1920594155473885	-16.25452348149645	-18.43995751731388	6.010377548314846	-4.30444028080568	-550.7294642511324	-59.10258574663627	-18.59011352263568	1.175262301745222	0.5940296030646955	0.08720955879395996	-2.75307813022963	0.7389264716579648	-0.6741547849829574	0.7625331617124389	-2.406195866389623	-2.406195866389695	0.03914559093182991	0.2159814508732703	-0.8129547391380149	0.4330549726969281	-3.537100245454527e-07	1.355441686394006e-07	2.391333567102712e-06	2.410483768405582e-07	-4.050992117177248e-07	3.820861317718571e-07	-3.175767951155784e-07
